<?xml version="1.0" standalone="no"?>
<!DOCTYPE svg PUBLIC "-//W3C//DTD SVG 20010904//EN"
 "http://www.w3.org/TR/2001/REC-SVG-20010904/DTD/svg10.dtd">
<svg version="1.0" xmlns="http://www.w3.org/2000/svg"
 width="128.000000pt" height="128.000000pt" viewBox="0 0 128.000000 128.000000"
 preserveAspectRatio="xMidYMid meet">

<g transform="translate(0.000000,128.000000) scale(0.100000,-0.100000)"
fill="#000000" stroke="none">
<path d="M200 1220 c-19 -19 -20 -33 -20 -224 l0 -205 -27 -21 c-52 -41 -52
-42 -53 -397 0 -326 0 -333 20 -333 20 0 20 7 20 329 0 312 1 330 20 352 l19
24 1 -147 c0 -135 2 -148 19 -158 29 -15 41 -7 120 81 71 78 103 95 115 63 6
-17 2 -25 -46 -82 -18 -21 -28 -44 -28 -65 0 -20 -13 -51 -37 -86 l-38 -55 -3
-128 c-3 -124 -3 -128 17 -128 14 0 21 6 21 20 0 20 7 20 370 20 357 0 371 1
390 20 11 11 20 28 20 37 0 12 21 -3 63 -45 50 -49 65 -60 75 -50 10 10 -15
40 -120 145 -132 132 -133 133 -179 133 -34 0 -57 8 -90 29 -64 43 -89 69 -83
86 9 21 22 19 79 -15 58 -34 85 -37 108 -12 20 22 22 45 5 72 -10 15 -9 23 6
39 11 12 23 21 27 21 4 0 28 -30 52 -67 60 -92 182 -212 199 -195 9 9 -5 29
-65 91 l-77 79 0 104 0 104 40 39 c27 26 40 48 40 65 0 32 -28 60 -58 60 -22
0 -22 2 -22 190 0 177 -1 191 -20 210 -19 19 -33 20 -440 20 -407 0 -421 -1
-440 -20z m858 -231 c2 -195 1 -206 -18 -224 l-20 -18 0 206 0 207 -380 0
-380 0 0 -323 c0 -311 -1 -325 -20 -342 -20 -18 -20 -17 -20 337 0 195 3 358
7 361 4 4 191 6 417 5 l411 -3 3 -206z m-78 -76 c0 -198 -1 -208 -22 -230 -19
-21 -31 -23 -106 -23 -103 0 -110 -4 -148 -106 -26 -67 -31 -74 -56 -74 -21 0
-28 -5 -28 -20 0 -15 7 -20 29 -20 45 0 44 -23 -5 -71 -38 -38 -44 -49 -44
-86 l0 -43 42 0 c37 0 48 6 94 51 l51 50 48 -30 c37 -24 61 -31 97 -31 l48 0
0 -40 0 -40 -330 0 -330 0 0 37 c0 26 10 52 31 83 l31 46 68 -4 c91 -5 110 12
110 98 0 64 -21 100 -58 100 -10 0 -22 12 -29 30 -11 29 -10 30 18 30 38 0 69
32 69 70 0 23 -5 30 -19 30 -14 0 -21 -8 -23 -27 -3 -27 -5 -28 -58 -28 l-55
0 0 55 c0 53 1 55 28 58 19 2 27 9 27 23 0 27 -53 26 -81 -2 -19 -19 -21 -30
-17 -95 5 -72 5 -73 -29 -105 l-33 -33 0 277 0 277 340 0 340 0 0 -207z m160
-151 c0 -11 -9 -27 -20 -37 -19 -17 -22 -18 -37 -2 -16 15 -15 18 2 37 23 25
55 26 55 2z m-79 -68 c11 -13 -2 -30 -97 -125 -103 -103 -111 -109 -129 -95
-19 14 -15 20 90 125 60 61 113 111 116 111 4 0 12 -7 20 -16z m-253 -161
c-48 -48 -90 -85 -93 -81 -3 3 9 42 26 87 l32 81 61 0 61 0 -87 -87z m250 15
c-4 -22 -5 -22 -18 4 -11 23 -11 30 1 44 13 16 14 16 17 -4 2 -12 2 -32 0 -44z
m-543 -88 l0 -55 -55 0 c-49 0 -55 2 -58 22 -2 13 8 37 25 58 23 29 34 35 58
33 29 -3 30 -4 30 -58z m415 -16 c0 -14 -21 -19 -33 -7 -9 9 13 34 24 27 5 -3
9 -12 9 -20z m-212 -121 c-44 -45 -78 -56 -78 -26 0 10 19 36 42 60 40 40 43
42 60 26 18 -16 17 -18 -24 -60z m340 -162 l-3 -36 -367 -3 c-363 -2 -368 -2
-368 18 0 20 6 20 350 20 l350 0 0 37 c0 36 0 36 20 18 15 -14 20 -29 18 -54z"/>
<path d="M380 1060 c-16 -16 -20 -33 -20 -80 0 -47 4 -64 20 -80 16 -16 33
-20 80 -20 70 0 100 21 100 70 0 23 -5 30 -19 30 -14 0 -21 -8 -23 -27 -3 -27
-5 -28 -58 -28 l-55 0 0 55 c0 53 1 55 28 58 19 2 27 9 27 23 0 26 -53 26 -80
-1z"/>
<path d="M620 1060 c0 -19 7 -20 150 -20 143 0 150 1 150 20 0 19 -7 20 -150
20 -143 0 -150 -1 -150 -20z"/>
<path d="M477 1022 c-39 -40 -45 -51 -34 -60 10 -9 24 -1 61 37 27 27 45 54
42 60 -11 18 -19 14 -69 -37z"/>
<path d="M620 980 c0 -19 7 -20 120 -20 113 0 120 1 120 20 0 19 -7 20 -120
20 -113 0 -120 -1 -120 -20z"/>
<path d="M620 800 c0 -19 7 -20 150 -20 143 0 150 1 150 20 0 19 -7 20 -150
20 -143 0 -150 -1 -150 -20z"/>
<path d="M477 762 c-39 -40 -45 -51 -34 -60 10 -9 24 -1 61 37 27 27 45 54 42
60 -11 18 -19 14 -69 -37z"/>
<path d="M620 720 c0 -19 7 -20 100 -20 93 0 100 1 100 20 0 19 -7 20 -100 20
-93 0 -100 -1 -100 -20z"/>
</g>
</svg>
